<svg t="1590557958901" class="icon" viewBox="0 0 1024 1024" version="1.1" xmlns="http://www.w3.org/2000/svg" p-id="6046" width="200" height="200"><path d="M1011.212231 358.4c8.533333 0 12.8 4.266667 12.8 12.8v25.6c0 8.533333-4.266667 12.8-12.8 12.8H870.412231v140.8c0 8.533333-4.266667 12.8-12.8 12.8h-25.6c-8.533333 0-12.8-4.266667-12.8-12.8v-140.8h-140.8c-8.533333 0-12.8-4.266667-12.8-12.8v-25.6c0-8.533333 4.266667-12.8 12.8-12.8h140.8v-140.8c0-8.533333 4.266667-12.8 12.8-12.8h25.6c8.533333 0 12.8 4.266667 12.8 12.8v140.8z m-508.814222 102.4c58.680889 0 109.084444 21.048889 151.210667 63.203556 42.126222 42.126222 63.203556 92.529778 63.203555 151.182222v67.214222c0 21.333333-7.480889 39.480889-22.414222 54.414222a74.069333 74.069333 0 0 1-54.385778 22.385778H76.812231c-21.333333 0-39.480889-7.452444-54.414222-22.385778A74.069333 74.069333 0 0 1 0.012231 742.4v-67.214222c0-58.652444 21.048889-109.056 63.203556-151.182222C105.342009 481.848889 155.745564 460.8 214.398009 460.8c13.880889 0 34.417778 4.266667 61.610667 12.8 27.192889 8.533333 54.670222 12.8 82.403555 12.8a281.6 281.6 0 0 0 83.2-12.8c27.733333-8.533333 47.985778-12.8 60.785778-12.8z m163.214222 281.6v-67.214222c0-44.8-16.014222-83.2-48.014222-115.2C585.598009 528.014222 547.198009 512 502.398009 512c-6.4 0-24.263111 4.266667-53.589333 12.8-29.326222 8.533333-59.448889 12.8-90.396445 12.8a321.991111 321.991111 0 0 1-90.396444-12.8c-29.326222-8.533333-47.217778-12.8-53.617778-12.8-44.8 0-83.2 15.985778-115.2 47.985778S51.212231 630.385778 51.212231 675.185778v67.214222c0 7.452444 2.389333 13.596444 7.196445 18.403556A24.917333 24.917333 0 0 0 76.812231 768h563.2a24.917333 24.917333 0 0 0 18.403556-7.196444 24.917333 24.917333 0 0 0 7.196444-18.403556z m-163.214222-391.992889C462.945564 389.859556 414.931342 409.6 358.412231 409.6c-56.547556 0-104.789333-19.996444-144.782222-60.017778-40.021333-39.992889-60.017778-88.263111-60.017778-144.782222 0-56.547556 19.996444-104.789333 60.017778-144.782222C253.594453 19.968 301.836231 0 358.412231 0c56.519111 0 104.789333 19.996444 144.782222 60.017778 40.021333 39.992889 60.017778 88.234667 60.017778 144.782222 0 56.519111-20.280889 105.073778-60.814222 145.607111z m-35.185778-254.407111C437.345564 66.133333 401.078898 51.2 358.412231 51.2s-78.933333 14.933333-108.8 44.8C219.745564 125.866667 204.812231 162.133333 204.812231 204.8s14.933333 78.933333 44.8 108.8C279.478898 343.466667 315.745564 358.4 358.412231 358.4s78.933333-14.933333 108.8-44.8C497.078898 283.733333 512.012231 247.466667 512.012231 204.8s-14.933333-78.933333-44.8-108.8z" p-id="6047"></path></svg>
