<svg t="1590851018011" class="icon" viewBox="0 0 1024 1024" version="1.1" xmlns="http://www.w3.org/2000/svg" p-id="2643" width="200" height="200"><path d="M824 656c-14.4 0-24 9.6-24 24v192h-576v-192c0-14.4-9.6-24-24-24s-24 9.6-24 24v192c0 26.4 21.6 48 48 48h576c26.4 0 48-21.6 48-48v-192c0-14.4-9.6-24-24-24zM728 368h-432c-12 0-24 12-24 24s12 24 24 24h432c12 0 24-12 24-24s-12-24-24-24z" p-id="2644" fill="#bfbfbf"></path><path d="M512 656c-12 0-24 12-24 24v48h-48c-12 0-24 12-24 24s12 24 24 24h48v48c0 12 12 24 24 24s24-12 24-24v-48h48c12 0 24-12 24-24s-12-24-24-24h-48v-48c0-12-12-24-24-24zM917.6 464l-88.8-343.2c-2.4-9.6-12-16.8-24-16.8h-588c-12 0-21.6 7.2-24 16.8L104 464c-2.4 7.2-2.4 16.8-2.4 24 0 79.2 64.8 144 144 144 60 0 110.4-36 132-86.4 21.6 50.4 72 86.4 132 86.4s110.4-36 132-86.4c21.6 50.4 72 86.4 132 86.4 79.2 0 144-64.8 144-144 2.4-7.2 2.4-16.8 0-24z m-141.6 120c-38.4 0-72-21.6-88.8-57.6-7.2-16.8-24-28.8-43.2-28.8s-36 12-43.2 28.8c-14.4 36-50.4 57.6-88.8 57.6s-72-21.6-88.8-57.6c-7.2-16.8-24-28.8-43.2-28.8s-36 12-43.2 28.8c-14.4 36-50.4 57.6-88.8 57.6-52.8 0-96-43.2-96-96v-14.4l84-321.6h549.6l84 321.6v14.4c2.4 52.8-40.8 96-93.6 96z" p-id="2645" fill="#bfbfbf"></path></svg>
