<svg t="1590989380849" class="icon" viewBox="0 0 1024 1024" version="1.1" xmlns="http://www.w3.org/2000/svg" p-id="2752" width="200" height="200"><path d="M472 608c123.2 0 229.6-88 254.4-136.8C744 436 744.8 296 744 253.6c-0.8-82.4-4.8-184-20.8-200.8C689.6 18.4 522.4 16 472 16 356 16 223.2 34.4 204.8 52.8c-4 3.2-14.4 14.4-16.8 203.2-1.6 126.4 3.2 199.2 14.4 216C224.8 507.2 352 608 472 608z m225.6-151.2C677.6 497.6 579.2 576 472 576c-104.8 0-224-91.2-242.4-120-8-16-10.4-112.8-9.6-205.6 26.4-8 173.6-49.6 252-49.6 70.4 0 196 41.6 240 57.6 0.8 87.2-3.2 177.6-14.4 198.4zM472 48c135.2 0 213.6 15.2 228 26.4 6.4 14.4 11.2 77.6 12 148.8-52.8-18.4-169.6-55.2-240-55.2-76.8 0-208.8 36-251.2 48 1.6-65.6 4.8-123.2 8.8-141.6C251.2 65.6 353.6 48 472 48z" fill="#bfbfbf" p-id="2753"></path><path d="M428 124.8h24V144c0 8.8 7.2 16 16 16s16-7.2 16-16v-19.2h24c8.8 0 16-7.2 16-16s-7.2-16-16-16h-24V75.2c0-8.8-7.2-16-16-16s-16 7.2-16 16v17.6h-24c-8.8 0-16 7.2-16 16s7.2 16 16 16zM472 632c-198.4 0-360 237.6-360 296 0 22.4 27.2 32 109.6 39.2 54.4 4.8 131.2 7.2 216 7.2 92.8 0 187.2-3.2 259.2-8 126.4-9.6 136-20.8 136-38.4-0.8-44.8-164-296-360.8-296z m0 310.4c-184 1.6-302.4-8.8-328-20C155.2 872 299.2 664 472 664c171.2 0 309.6 207.2 326.4 256.8-31.2 9.6-156 20-326.4 21.6zM991.2 859.2c-0.8-4-28.8-95.2-57.6-140-29.6-44.8-90.4-75.2-128.8-91.2 38.4-26.4 99.2-80.8 107.2-163.2 8.8-97.6-2.4-264-6.4-326.4-0.8-8.8-0.8-16-1.6-20-2.4-47.2-78.4-54.4-86.4-55.2-8.8-0.8-16.8 5.6-16.8 14.4s5.6 16.8 14.4 16.8c23.2 1.6 56.8 12 57.6 24.8 0 4 0.8 11.2 1.6 20 1.6 18.4 3.2 46.4 4.8 78.4-23.2-11.2-57.6-25.6-93.6-27.2l-1.6 32c40.8 2.4 81.6 24 96.8 32.8 3.2 68.8 4.8 149.6 0 205.6C872 560 762.4 615.2 761.6 616c-5.6 3.2-9.6 8.8-8.8 16 0.8 6.4 4.8 12 11.2 14.4 0.8 0 106.4 32.8 143.2 89.6 26.4 40.8 53.6 131.2 54.4 132 2.4 7.2 8.8 11.2 15.2 11.2 1.6 0 3.2 0 4.8-0.8 7.2-1.6 12-10.4 9.6-19.2z" fill="#bfbfbf" p-id="2754"></path></svg>
