<svg t="1590559670774" class="icon" viewBox="0 0 1024 1024" version="1.1" xmlns="http://www.w3.org/2000/svg" p-id="12990" width="200" height="200"><path d="M939.632 85.377C883.892 28.964 807.25 0.757 730.606 0.757c-76.643 0-153.285 28.206-209.026 84.62L89.595 515.527c-118.449 119.877-118.449 310.27 0 423.096 55.74 56.413 132.383 84.62 209.027 84.62 76.642 0 153.285-28.206 209.026-84.62l431.986-423.097c55.74-56.413 83.61-133.981 83.61-211.55 0-84.619-27.87-162.187-83.61-218.6zM281.758 918.492c-77.299 0-136.792-63.038-162.19-114.363-31.609-63.877-10.736-156.982 73.629-248.712l168.728-171.228L643.45 664.282 474.722 835.51c-42.182 42.806-115.666 82.982-192.964 82.982zM889.28 180.72c-7.82 8.095-30.314 10.382-40.225-3.674-26.29-37.273-76.644-49.36-118.45-49.36-48.771 0-90.576 21.155-118.447 49.36L479.776 318.081c-15.45 13.494-26.315 8.286-34.839 0-6.968-7.052-6.968-21.156 0-28.206l139.35-141.033c41.806-42.31 90.579-63.465 153.287-63.465 55.74 0 109.901 21.155 151.706 63.465 5.908 5.382 7.821 23.785 0 31.879z" p-id="12991"></path></svg>
