<svg t="1590558327960" class="icon" viewBox="0 0 1024 1024" version="1.1" xmlns="http://www.w3.org/2000/svg" p-id="7616" width="200" height="200"><path d="M502.39744 350.407111C462.944996 389.859556 414.930773 409.6 358.411662 409.6c-56.547556 0-104.789333-19.996444-144.782222-60.017778-40.021333-39.992889-60.017778-88.263111-60.017778-144.782222 0-56.547556 19.996444-104.789333 60.017778-144.782222C253.593884 19.968 301.835662 0 358.411662 0c56.519111 0 104.789333 19.996444 144.782222 60.017778 40.021333 39.992889 60.017778 88.234667 60.017778 144.782222 0 56.519111-20.280889 105.073778-60.814222 145.607111z m-35.185778-254.407111C437.344996 66.133333 401.078329 51.2 358.411662 51.2s-78.933333 14.933333-108.8 44.8C219.744996 125.866667 204.811662 162.133333 204.811662 204.8s14.933333 78.933333 44.8 108.8C279.478329 343.466667 315.744996 358.4 358.411662 358.4s78.933333-14.933333 108.8-44.8C497.078329 283.733333 512.011662 247.466667 512.011662 204.8s-14.933333-78.933333-44.8-108.8z m542.407111 281.6c9.585778 10.666667 14.392889 22.926222 14.392889 36.807111 0 13.852444-4.807111 26.112-14.392889 36.778667L652.811662 806.4l-108.8 12.8h-3.214222a28.16 28.16 0 0 1-21.589333-9.614222 26.794667 26.794667 0 0 1-7.196445-22.385778l12.8-108.8 355.185778-356.807111a53.390222 53.390222 0 0 1 36.807111-14.392889c13.880889 0 26.140444 4.807111 36.807111 14.392889zM628.804551 758.385778l251.192889-251.164445-55.978667-56.035555-251.221333 251.221333-6.4 62.378667z m288-288L972.811662 414.435556l-56.007111-56.035556-55.978667 56.035556zM214.39744 512c-44.8 0-83.2 15.985778-115.2 47.985778S51.211662 630.385778 51.211662 675.185778v67.214222c0 7.452444 2.389333 13.596444 7.196445 18.403556A24.917333 24.917333 0 0 0 76.811662 768h385.592889l-1.592889 14.392889c-1.080889 11.747556 1.052444 24.007111 6.4 36.807111H76.811662c-21.333333 0-39.480889-7.480889-54.414222-22.414222A74.069333 74.069333 0 0 1 0.011662 742.4v-67.214222c0-58.652444 21.048889-109.056 63.203556-151.182222C105.34144 481.848889 155.744996 460.8 214.39744 460.8c13.880889 0 34.417778 4.266667 61.610667 12.8 27.192889 8.533333 54.670222 12.8 82.403555 12.8a281.6 281.6 0 0 0 83.2-12.8c27.733333-8.533333 47.985778-12.8 60.785778-12.8 45.880889 0 87.466667 13.852444 124.814222 41.585778l-35.214222 36.807111c-27.733333-18.119111-57.6-27.192889-89.6-27.192889-6.4 0-24.263111 4.266667-53.589333 12.8-29.326222 8.533333-59.448889 12.8-90.396445 12.8a321.991111 321.991111 0 0 1-90.396444-12.8c-29.326222-8.533333-47.217778-12.8-53.617778-12.8z" p-id="7617"></path></svg>
