<svg t="1590847583381" class="icon" viewBox="0 0 1084 1024" version="1.1" xmlns="http://www.w3.org/2000/svg" p-id="2633" width="200" height="200"><path d="M1054.117647 394.119529c0-7.920941 0-10.029176-113.814588-313.193411C929.460706 51.952941 897.957647 30.117647 866.936471 30.117647H217.298824c-30.960941 0-62.524235 21.835294-73.246118 50.748235C30.117647 384.090353 30.117647 386.198588 30.117647 394.089412c0 57.735529 26.021647 109.056 66.379294 144.50447-0.120471 1.084235-0.602353 2.078118-0.602353 3.192471v352.346353a95.864471 95.864471 0 0 0 95.563294 95.984941h701.31953a95.894588 95.894588 0 0 0 95.653647-95.984941V541.786353c0-1.114353-0.602353-2.108235-0.692706-3.192471C1028.156235 503.145412 1054.117647 451.855059 1054.117647 394.119529z m-129.415529 500.013177c0 17.618824-14.336 31.984941-31.924706 31.984941H191.457882c-17.588706 0-31.924706-14.366118-31.924706-31.984941V575.608471c20.329412 7.228235 41.803294 11.866353 64.572236 11.866353 97.882353 0 160.225882-67.885176 158.418823-70.716236 2.56 2.831059 63.247059 68.577882 160.406589 70.475294 95.533176-1.897412 156.310588-67.644235 154.413176-70.535529 2.620235 2.891294 64.963765 70.776471 162.846118 70.776471 22.708706 0 44.272941-4.638118 64.512-11.866353v318.524235z m-64.512-370.898824c-68.879059 0-115.169882-49.302588-115.531294-49.754353a60.928 60.928 0 0 0-45.056-20.329411c-16.986353 0-33.430588 7.408941-44.995765 20.178823-0.421647 0.451765-45.537882 48.338824-111.977412 49.633883-67.463529-1.295059-112.519529-49.182118-112.820706-49.483295-23.401412-25.840941-66.861176-25.780706-90.172235-0.060235-0.421647 0.512-46.682353 49.814588-115.531294 49.814588-70.144 0-127.488-55.416471-129.987765-124.385882 9.999059-28.822588 69.782588-188.807529 109.688471-295.333647 1.505882-4.005647 9.125647-9.155765 13.492706-9.155765h649.637647c4.427294 0 11.986824 5.12 13.462588 9.216 39.996235 106.465882 99.779765 266.450824 109.68847 295.243294-2.469647 69.029647-59.753412 124.385882-129.897411 124.385883z" fill="#bfbfbf" p-id="2634"></path></svg>
