<svg t="1590560153709" class="icon" viewBox="0 0 1024 1024" version="1.1" xmlns="http://www.w3.org/2000/svg" p-id="13753" width="200" height="200"><path d="M986.24 560.64l-222.9248-129.7152V179.6352c0-8.1152-4.0704-12.16-8.1152-16.2304l-231.04-133.76C516.0448 25.6 512 25.6 503.8848 29.6448l-231.04 133.76c-8.0896 0-12.16 8.1152-12.16 16.2304v251.2896L37.76 560.64c-8.1152 4.0448-8.1152 8.1152-8.1152 16.2048v267.52c0 8.1152 4.0704 12.16 8.1152 16.2304l231.04 133.76c4.0448 4.0448 8.1152 4.0448 12.16 4.0448 4.0448 0 8.1152 0 8.1152-4.0448L512 864.64l222.9248 129.7152c4.0704 0 8.1152 4.0448 8.1152 4.0448 4.0448 0 8.1152 0 8.1152-4.0448l231.04-133.76c8.0896-4.0704 8.0896-8.1152 8.0896-16.2304v-267.52c4.0704-4.0448 0-12.16-4.0448-16.2048zM260.6848 941.6448l-190.4896-109.44v-218.88l190.4896 117.5552v210.7648z m20.2752-247.2448l-190.5152-117.5552 190.5152-109.44 190.5152 109.44-190.5152 117.5552z m210.7648 137.8048l-194.56 113.5104V730.88l194.56-117.5552v218.88z m0-287.7696l-190.4896-109.44V212.0448l190.4896 117.5552v214.8352z m-170.24-364.8L512 70.1952l190.5152 109.44L512 297.1648l-190.5152-117.5296z m210.7904 149.9648l194.56-117.5552v218.88l-194.56 113.5104v-214.8352z m190.4896 612.0448l-190.4896-109.44v-218.88l190.4896 117.5552v210.7648z m20.2752-247.2448l-190.5152-113.4848 190.5152-109.44 190.5152 109.44-190.5152 113.4848z m210.7648 137.8048l-194.56 113.5104V730.88l194.56-117.5552v218.88z" p-id="13754" fill="#bfbfbf"></path></svg>
