<svg t="1590559189907" class="icon" viewBox="0 0 1024 1024" version="1.1" xmlns="http://www.w3.org/2000/svg" p-id="10778" width="200" height="200"><path d="M654.5 465.3l0.2-0.3c-21.8-12.5-45-23.4-69.3-31.7 54-41.1 89-105.6 89.1-178.6 0.1-123.9-100.2-224.6-224.2-224.7-124-0.1-224.5 100.3-224.6 224.3-0.1 72.9 34.7 137.7 88.5 178.7C152 489 35.3 642.6 35.2 823.8c-0.1 19 15.4 34.5 34.5 34.5 18.9 0 34.4-15.5 34.5-34.4 0.1-190.7 154.8-345.1 345.6-344.9 59.1 0 114.7 14.9 163.3 41.3l0.8-1c6.3 7.1 15.5 11.7 25.7 11.7 19.2 0 34.5-15.4 34.6-34.4 0-14-8.1-25.7-19.7-31.3zM450 410c-85.9-0.2-155.3-69.7-155.3-155.6 0.1-85.8 69.6-155.3 155.5-155.1 85.8 0.1 155.3 69.7 155.2 155.3 0 85.9-69.6 155.4-155.4 155.4zM988.8 755.7h-0.3c-0.9-8.9-7.9-16-16.8-16.9h-10.4v-0.1c-11.1 0-20.8-6.5-25.4-15.8-1.1-2.3-2-4.8-2.5-7.4-2.1-5.8-4.5-11.5-7-17h-0.1c-1.3-2-2.5-4.1-3.2-6.3-1.1-2.9-1.7-6.1-1.7-9.5 0-7.9 3.1-14.9 8.4-20l5.7-5.7c0.1 0 0.1-0.1 0.2-0.2l0.2-0.2c6.8-6.9 7-17.7 1.1-25.1l0.1-0.1c-4.5-5.3-9-10.5-13.8-15.3-5-5-10.2-9.8-15.6-14.3l-0.1 0.1c-6.6-5.5-16.1-5.7-23.1-0.7l-4.1 4.1-4 3.8-0.1-0.1c-8.2 8.2-20.4 10.4-30.6 6.2-1.4-0.6-2.8-1.2-4-2-6.5-3.2-13.4-6-20.3-8.4-1.2-0.3-2.5-0.8-3.6-1.2h-0.1c-3.5-1.3-6.6-3.5-9.4-6.2-4.6-4.6-7.2-10.5-8-16.5-0.3-2.3-0.3-4.8 0-7.1v-4.9c0-9.4-6.7-17-15.6-18.7-1.1-0.1-2.2-0.2-3.3-0.2-6.2-0.6-12.6-0.8-18.9-0.8s-12.7 0.2-18.9 0.8c-1.1 0.1-2.1 0.1-3.3 0.2-8.8 1.6-15.6 9.2-15.6 18.6v8.5c0 12.1-7.8 22.6-18.5 26.6-0.7 0.2-1.3 0.6-2.1 0.8-7.6 2.5-14.9 5.5-21.9 9-7.1 3.6 0 0-0.1 0-0.6 0.3-1.1 0.6-1.7 0.9-3.7 1.7-7.7 2.6-11.8 2.6-7.6 0-14.7-3-20-8.4h-0.1l-6-6c-6.6-6.6-16.7-7.2-24.1-2.2-0.9 0.7-1.7 1.4-2.5 2l-0.1 0.1c-4.8 4-9.5 8.4-13.9 12.8-4.5 4.5-8.7 9-12.8 13.9h-0.1c-0.7 0.9-1.3 1.7-2.1 2.6-5.2 7.4-4.5 17.5 2.1 24.2l6 6c8.5 8.7 10.5 21.4 5.7 31.7-0.3 0.7-0.7 1.3-1 1.9-3.5 7-6.5 14.4-9 21.8-0.2 0.8-0.4 1.6-0.8 2.3-1.4 3.6-3.5 7-6.5 9.8-5.6 5.6-12.8 8.4-20 8.4v0.1h-8.5c-9.2 0-17.2 6.7-18.7 15.5l-0.3 3.3c-0.6 6.1-0.8 12.7-0.8 18.9v0.3c0 6.2 0.2 12.5 0.8 18.6 0.1 1.1 0.1 2.2 0.3 3.3 1.6 8.9 9.2 15.6 18.5 15.6h8.5c12 0 22.4 7.6 26.4 18.3 0.3 0.7 0.6 1.3 0.7 2.1 0 0 0 0.1 0.1 0.1 2.5 7.6 5.6 14.9 9 21.9l0.1 0.1c0.3 0.6 0.6 1.1 0.9 1.8 1.7 3.6 2.7 7.6 2.7 11.8 0 7.9-3.2 14.9-8.4 20l-5.7 5.8-0.2 0.2-0.2 0.2c-6.3 6.5-7 16.4-2.1 23.7 0.9 1 1.7 2 2.5 2.9 4 4.8 8.2 9.4 12.7 13.8 4.5 4.5 9 8.7 13.8 12.7 0.9 0.9 1.9 1.7 2.9 2.5 6.5 4.5 15.3 4.3 21.7-0.3l4.1-4.1 3.9-3.9 0.2 0.1c8.6-8.6 21.4-10.5 31.9-5.7 0.6 0.2 1.1 0.6 1.6 0.8 0.1 0 0.1 0 0.1 0.1 7.1 3.6 14.6 6.6 22.2 9.2 0.7 0.1 1.3 0.4 1.9 0.7 3.8 1.4 7.4 3.7 10.2 6.6 5.3 5.3 8.4 12.5 8.4 20h0.1l-0.1 8.4c0 9.8 7.5 17.8 16.9 18.8v0.1c6.8 0.7 13.8 1 20.8 1s13.9-0.3 20.8-0.9v-0.1c9.5-1 16.9-9 16.9-18.8l0.1-8.5c0-11.5 6.8-21.2 16.4-25.7 2-0.9 4-1.6 6.2-2 6.2-2.1 12.4-4.7 18.2-7.6 1.7-1.1 3.5-2 5.5-2.7 3.1-1.1 6.5-1.8 9.9-1.8 7.2 0 13.8 2.7 18.8 7.1 0.9 0.8 1.7 1.6 2.5 2.5l4.9 4.8c6.7 6.7 17.2 7.4 24.5 2 0 0 0.1 0 0.1-0.1 0.7-0.6 1.2-1 1.9-1.6 4.9-4.2 9.7-8.6 14.4-13.1 4.6-4.6 8.9-9.4 13-14.3 0.6-0.7 1.1-1.3 1.7-2 5.2-7.1 4.8-17-1.1-23.7h-0.1l-1.3-1.3-5.2-5.3c-8.5-8.5-10.5-20.9-6-31.3 0.4-1 0.9-1.9 1.4-2.9 3.3-6.8 6.2-13.9 8.8-21 0.3-1 0.6-1.9 0.9-2.8 1.4-3.6 3.5-6.9 6.3-9.8 5.6-5.5 12.9-8.2 20.2-8.2h8.2c10 0 18.4-7.9 18.8-17.9h0.3c0.6-6.6 0.9-13.1 0.9-19.8-0.5-7-0.8-13.9-1.4-20.9zM762.4 912.5c-75.2-0.1-136.1-61-136-136.2 0.1-75.2 61.1-136.1 136.3-136 75.2 0.1 136 61.1 135.9 136.3-0.1 75.2-61.1 136-136.2 135.9z" fill="#bfbfbf" p-id="10779"></path></svg>
