<svg t="1590847630426" class="icon" viewBox="0 0 1024 1024" version="1.1" xmlns="http://www.w3.org/2000/svg" p-id="3443" width="200" height="200"><path d="M809.708308 158.995692c-8.900923-1.142154-4.844308 6.695385-8.467693 14.41477-1.654154 3.544615-0.393846 9.334154-7.483077 22.567384-3.938462 7.404308 7.483077 33.673846 0 30.562462-1.693538-0.708923-3.032615-1.732923-4.01723 1.024-5.277538 14.336-16.384 23.118769-29.538462 29.538461-4.647385 2.284308-6.144 4.844308-5.671384 9.964308 0.669538 7.364923-13.548308 16.817231-17.723077 23.355077-1.457231 2.244923 23.433846 5.316923-5.513847 5.316923-7.325538 0-8.388923 2.599385-9.373538-4.529231-3.268923-23.355077-4.292923-46.710154 1.378462-69.868308 2.520615-10.358154-22.094769-18.195692-13.784616-25.363692 1.969231-1.693538 2.56-3.662769 2.953846-6.144 2.756923-15.911385 8.073846-30.72 18.865231-43.047384 16.305231-18.668308-0.630154-40.723692 23.236923-39.581539 6.577231 0.315077 10.397538-0.905846 14.296616-6.774154 18.038154-27.096615 38.084923-72.467692 69.592615-64.393846 4.686769 1.181538 8.585846 0.945231 12.996923-1.220923 14.729846-7.246769 30.168615-12.209231 46.670769-13.075692 31.940923-1.693538 53.484308 11.815385 66.126769 41.196307 5.159385 12.091077 7.995077 24.930462 11.34277 37.494154 4.056615 15.281231-2.993231 28.120615-14.966154 37.612308-5.001846 3.977846-0.393846-2.363077 0 3.741538 1.063385 15.202462-2.756923 28.829538-16.147692 38.045539-6.695385 4.608-14.296615 6.695385-22.252308 7.68-12.209231 1.575385-24.418462 1.181538-36.115692-1.929846-19.771077-5.198769-37.572923-20.558769-35.485539-47.537231-7.325538 0.157538-0.787692-0.236308-1.063385 0.157538-6.262154 15.517538-21.031385 23.236923-39.85723 20.795077z m83.37723 36.824616c0.236308-0.118154 1.024 0.157538 1.10277 0.354461 0.433231 1.102769-0.118154 1.890462-1.339077 2.481231l-0.748308-0.078769-0.669538 0.236307c-0.354462-1.339077 0.196923-2.363077 1.654153-2.99323z m66.756924 453.907692c-32.728615-15.753846-151.748923-37.218462-184.516924-52.854154-4.608-2.166154-5.671385-4.726154-5.671384-9.412923 0.157538-89.678769 0.039385-161.713231 0.236308-251.392 0-5.592615-1.575385-6.774154-6.852924-6.695385-25.875692 0.275692-3.465846 5.316923-29.302153 5.671385-5.474462 0.039385-6.498462-1.575385-6.419693-6.695385 0.275692-19.652923 0-39.345231 0.196923-59.037538 0.078769-4.253538-1.260308-5.316923-5.356307-5.238154-13.902769 0.236308-27.844923 0.393846-41.747693 0-5.592615-0.196923-7.286154 1.024-7.286153 6.971077 0.236308 89.324308 0.157538 160.925538 0.157538 250.210462v7.522461c-2.717538-1.220923-4.489846-2.008615-6.222769-2.875077C525.784615 457.137231 314.683077 385.969231 173.568 317.085538a22.528 22.528 0 0 0-10.279385-2.402461c-38.4 0.078769-98.461538 0.157538-136.861538-0.039385-5.198769-0.039385-6.537846 1.181538-6.537846 6.498462 0.157538 231.108923 0.157538 464.659692 0 695.729231 0 4.962462 1.260308 6.222769 6.183384 6.222769 267.697231-0.118154 665.206154-0.157538 932.864 0 5.159385 0 6.104615-1.457231 6.065231-6.301539-0.118154-119.492923-0.118154-239.025231 0-358.557538 0-4.332308-1.181538-6.577231-5.159384-8.507077zM144.777846 946.569846c-4.608 0.039385-5.986462-0.984615-5.986461-5.828923 0.236308-45.134769 0.118154-84.283077 0.118153-129.417846s0.118154-90.269538-0.118153-135.404308c0-5.12 1.457231-6.144 6.301538-6.065231 20.086154 0.275692 44.110769 0.275692 64.196923 0 4.804923-0.078769 6.301538 0.945231 6.301539 6.065231-0.157538 90.269538-0.157538 174.552615 0 264.822154 0 4.923077-1.496615 5.868308-6.025847 5.828923a2990.473846 2990.473846 0 0 0-64.787692 0z m184.950154-1.378461a3106.146462 3106.146462 0 0 0-68.096 0c-4.804923 0.118154-5.395692-1.575385-5.395692-5.750154 0.118154-45.331692 0.078769-83.337846 0.078769-128.708923 0-44.898462 0.078769-89.875692-0.118154-134.774154 0-5.12 1.417846-6.183385 6.301539-6.104616 20.243692 0.275692 46.592 0.236308 66.875076 0 4.214154 0 5.750154 0.708923 5.71077 5.435077-0.157538 90.663385-0.118154 174.001231 0 264.664616 0 4.253538-1.260308 5.277538-5.356308 5.238154z m51.003077 0.708923c-5.12 0.078769-6.695385-0.984615-6.616615-6.459077 0.236308-44.898462 0.118154-86.764308 0.118153-131.702154s0.078769-86.646154-0.078769-131.544615c0-4.923077 0.669538-6.852923 6.301539-6.695385 20.48 0.393846 46.592 0.236308 67.072 0.039385 3.741538 0 5.041231 0.787692 5.04123 4.844307-0.118154 90.899692-0.118154 175.419077 0 266.279385 0 4.332308-1.299692 5.238154-5.395692 5.198769a2944.393846 2944.393846 0 0 0-66.441846 0z" p-id="3444" fill="#bfbfbf"></path></svg>
