<?xml version="1.0" standalone="no"?><!DOCTYPE svg PUBLIC "-//W3C//DTD SVG 1.1//EN" "http://www.w3.org/Graphics/SVG/1.1/DTD/svg11.dtd"><svg t="1590556920661" class="icon" viewBox="0 0 1024 1024" version="1.1" xmlns="http://www.w3.org/2000/svg" p-id="854" xmlns:xlink="http://www.w3.org/1999/xlink" width="200" height="200"><defs><style type="text/css"></style></defs><path d="M804.4 678.7c-46.3-25.9-106.8-44.8-176.1-55.1v-39.8c79.8-49 130.6-147.1 130.6-255 0-75.7-24.6-147.1-69.2-201.1-22.1-26.7-48-47.8-76.9-62.6-30.4-15.5-62.7-23.4-96.1-23.4s-65.7 7.9-96.1 23.4c-28.9 14.8-54.8 35.9-76.9 62.6-44.6 54-69.2 125.4-69.2 201.1 0 55.8 13.5 109.9 39 156.5 21.7 39.5 50.9 71.9 85.4 94.6v42.3c-71 9.6-135.3 28.7-182.9 54.6-28.1 15.3-50.3 32.7-65.9 51.7-18 21.9-27.1 45.5-27.1 70.1 0 53.3 43.1 101.5 121.3 135.6 71 31 164.8 48 264.1 48 99.3 0 193.1-17 264.1-48 78.2-34.1 121.3-82.3 121.3-135.6 0-24.1-8.8-47.2-26.1-68.8-14.9-18.7-36.2-35.9-63.3-51.1z m14.1 161.5c-15.3 15.8-38.8 30.8-68 43.5-64.2 28-150.2 43.4-242.1 43.4s-177.9-15.4-242.1-43.4c-29.2-12.7-52.6-27.8-68-43.5-13.5-13.9-20.4-27.9-20.4-41.6 0-24.9 22.8-51 64.3-73.5 46.9-25.4 113.3-43.6 187-51.1 15.1-1.5 26.1-15 24.6-30.2v-0.1c0-0.6 0.1-1.2 0.1-1.8V579c7-13.3 2-29.9-11.3-37-68.7-36.9-113.1-120.6-113.1-213.1 0-128 83.9-232.1 187.1-232.1 103.2 0 187.1 104.1 187.1 232.1 0 94.1-45.4 178.3-115.6 214.5-0.4 0.2-0.7 0.4-1.1 0.6-0.1 0-0.1 0.1-0.2 0.1-0.3 0.2-0.6 0.4-0.9 0.5-0.1 0.1-0.2 0.1-0.4 0.2s-0.4 0.3-0.7 0.4c-0.2 0.1-0.4 0.2-0.5 0.4-0.1 0.1-0.3 0.2-0.4 0.3-0.2 0.2-0.5 0.4-0.7 0.6-0.1 0-0.1 0.1-0.2 0.1-1.7 1.4-3.1 3-4.4 4.7-0.2 0.3-0.5 0.7-0.7 1-0.1 0.2-0.3 0.4-0.4 0.7-0.1 0.1-0.2 0.3-0.3 0.4-1.8 2.9-3 6.2-3.6 9.7v0.2c0 0.3-0.1 0.6-0.1 0.9 0 0.2 0 0.3-0.1 0.5 0 0.2 0 0.4-0.1 0.7 0 0.3 0 0.5-0.1 0.8V642c0 1 0.1 2 0.2 2.9-1.6 15 9.2 28.5 24.2 30.2 71.3 8.3 135.1 26.6 179.9 51.6 39.6 22.1 61.4 47.7 61.4 71.9 0 13.7-6.8 27.7-20.4 41.6zM965 586.8c-27.8-15.6-63.5-27.1-104.3-33.7v-13.6c49.2-32.2 80.3-93.7 80.3-161 0-48.3-15.7-94-44.3-128.5-29.7-35.9-69.6-55.7-112.3-55.7-13.6 0-24.6 11-24.6 24.6s11 24.6 24.6 24.6c59.2 0 107.3 60.6 107.3 135 0 55-26.3 104.1-66.9 125-0.3 0.2-0.6 0.3-1 0.5-0.1 0-0.1 0.1-0.2 0.1-0.3 0.2-0.5 0.3-0.8 0.5-0.1 0.1-0.2 0.1-0.3 0.2-0.2 0.1-0.4 0.3-0.6 0.4-0.2 0.1-0.3 0.2-0.5 0.3-0.1 0.1-0.2 0.2-0.4 0.3-0.2 0.2-0.4 0.3-0.6 0.5-0.1 0-0.1 0.1-0.2 0.1-1.5 1.2-2.8 2.6-4 4.2-0.2 0.3-0.4 0.6-0.7 0.9-0.1 0.2-0.3 0.4-0.4 0.6-0.1 0.1-0.2 0.2-0.2 0.4-1.6 2.6-2.7 5.5-3.3 8.7v0.2c0 0.3-0.1 0.5-0.1 0.8 0 0.2 0 0.3-0.1 0.5 0 0.2 0 0.4-0.1 0.6 0 0.2 0 0.5-0.1 0.7v47c0 0.6 0 1.2 0.1 1.8-1 13.1 8.6 24.7 21.7 26.3 87.4 10.1 141.5 43.3 141.5 68.3 0 13.6 11 24.6 24.6 24.6s24.6-11 24.6-24.6c0.3-21.8-9.9-53.3-58.7-80.6z m-752.5-14.1c0-0.6 0.1-1.2 0.1-1.8v-47c0-0.2 0-0.5-0.1-0.7 0-0.2 0-0.4-0.1-0.6 0-0.2 0-0.3-0.1-0.5 0-0.3-0.1-0.5-0.1-0.8v-0.2c-0.5-3.1-1.7-6.1-3.3-8.7-0.1-0.1-0.2-0.2-0.2-0.4-0.1-0.2-0.2-0.4-0.4-0.6-0.2-0.3-0.4-0.6-0.7-0.9-1.1-1.5-2.5-2.9-4-4.2-0.1 0-0.1-0.1-0.2-0.1-0.2-0.2-0.4-0.3-0.6-0.5-0.1-0.1-0.2-0.2-0.4-0.3-0.2-0.1-0.3-0.2-0.5-0.3-0.2-0.1-0.4-0.3-0.6-0.4-0.1-0.1-0.2-0.1-0.3-0.2-0.3-0.2-0.5-0.3-0.8-0.5-0.1 0-0.1-0.1-0.2-0.1-0.3-0.2-0.6-0.4-1-0.5-40.7-21-66.9-70-66.9-125 0-74.4 48.1-135 107.3-135 13.6 0 24.6-11 24.6-24.6s-11-24.6-24.6-24.6c-42.7 0-82.6 19.8-112.3 55.7C98.8 284.4 83 330.1 83 378.4c0 67.3 31.1 128.8 80.3 161V553c-40.8 6.7-76.5 18.2-104.3 33.7C10.2 614 0 645.5 0 667.1c0 13.6 11 24.6 24.6 24.6s24.6-11 24.6-24.6c0-24.9 54.1-58.1 141.5-68.3 13.2-1.4 22.7-13 21.8-26.1z" p-id="855"></path></svg>