<svg t="1590557697890" class="icon" viewBox="0 0 1038 1024" version="1.1" xmlns="http://www.w3.org/2000/svg" p-id="805" width="200" height="200"><path d="M508.333 428.865a234.125 234.125 0 1 0-263.059-2.124A330.748 330.748 0 0 0 0 745.28v159.27A119.717 119.717 0 0 0 119.452 1024h507.006A119.717 119.717 0 0 0 745.91 904.548V745.28a331.014 331.014 0 0 0-237.577-316.414zM378.263 80.066a154.49 154.49 0 1 1-154.49 154.491 154.49 154.49 0 0 1 154.49-154.49z m288.012 824.482a39.817 39.817 0 0 1-39.817 39.818H119.452a39.817 39.817 0 0 1-39.818-39.818V745.28a251.114 251.114 0 0 1 250.849-250.848h84.943a251.114 251.114 0 0 1 250.85 250.848z" p-id="806"></path><path d="M823.686 410.55A233.594 233.594 0 0 0 669.99 0.431a39.817 39.817 0 0 0 0 79.634 154.49 154.49 0 1 1 0 308.716 39.817 39.817 0 0 0 0 79.635 212.359 212.359 0 0 0 26.545-1.593 35.57 35.57 0 0 0 10.618 1.593 251.114 251.114 0 0 1 250.583 250.318v159.268a39.817 39.817 0 0 1-39.817 39.818 39.817 39.817 0 0 0 0 79.634 119.717 119.717 0 0 0 119.452-119.452V718.735a330.748 330.748 0 0 0-213.686-308.186z" p-id="807"></path></svg>
